<svg xmlns="http://www.w3.org/2000/svg" width="41.141" height="48" viewBox="0 0 41.141 48">
  <path id="ic_brand_logo" d="M78.577,55.018c.944,6.281-.785,9.715-5.669,10.437-5.427.8-7.663-2.833-8.607-9.114-1.27-8.451,1.714-13.708,5.969-14.046C74.143,41.987,77.632,48.738,78.577,55.018Zm2.534,17.431c.335,3.566-1.592,6.894-4.5,7.464-2.936.574-6.29-1.754-6.974-5.27s1.9-3.7,5.07-4.308S80.706,68.148,81.111,72.449Zm9.466-27.718c-.944,6.281.785,9.715,5.668,10.437,5.428.8,7.663-2.833,8.607-9.114,1.271-8.452-1.714-13.738-5.968-14.046-3.9-.283-7.362,6.442-8.307,12.723ZM88.043,62.163c-.335,3.565,1.592,6.894,4.5,7.464,2.936.574,6.29-1.754,6.974-5.27s-1.9-3.7-5.07-4.309S88.448,57.862,88.043,62.163Z" transform="translate(-64.007 -32)" fill="#fff"/>
</svg>
