<svg xmlns="http://www.w3.org/2000/svg" width="27.755" height="32.383" viewBox="0 0 27.755 32.383">
  <path id="ic_brand_inverted" d="M73.837,47.529c.637,4.237-.53,6.554-3.824,7.041-3.661.541-5.17-1.911-5.806-6.148-.857-5.7,1.157-9.248,4.027-9.476C70.845,38.738,73.2,43.292,73.837,47.529Zm1.709,11.76c.226,2.406-1.074,4.651-3.036,5.035a4.294,4.294,0,0,1-4.7-3.556c-.461-2.372,1.283-2.5,3.42-2.907S75.273,56.387,75.546,59.289Zm6.386-18.7c-.637,4.237.53,6.554,3.824,7.041,3.662.541,5.17-1.911,5.806-6.148.857-5.7-1.157-9.268-4.026-9.476C84.905,31.815,82.57,36.352,81.932,40.589Zm-1.71,11.76C80,54.754,81.3,57,83.259,57.385a4.294,4.294,0,0,0,4.7-3.556c.461-2.372-1.283-2.5-3.42-2.907S80.5,49.447,80.223,52.349Z" transform="translate(-64.007 -32)" fill="#666"/>
</svg>
