<svg xmlns="http://www.w3.org/2000/svg" width="127" height="127" viewBox="0 0 127 127">
  <g id="ic_cookie" transform="translate(-2368 -582)">
    <rect id="Rectangle_10" data-name="Rectangle 10" width="127" height="127" rx="48" transform="translate(2368 582)" fill="#dbb26d"/>
    <g id="cookie" transform="translate(2389 603)">
      <g id="Group_8" data-name="Group 8" transform="translate(17.098 22.357)">
        <g id="Group_7" data-name="Group 7">
          <path id="Path_5" data-name="Path 5" d="M110.7,136.275a6.491,6.491,0,1,0,6.491,6.491A6.5,6.5,0,0,0,110.7,136.275Zm0,10.521a4.03,4.03,0,1,1,4.03-4.03A4.035,4.035,0,0,1,110.7,146.8Z" transform="translate(-104.213 -136.275)" fill="#fff"/>
        </g>
      </g>
      <g id="Group_10" data-name="Group 10" transform="translate(44.716 52.606)">
        <g id="Group_9" data-name="Group 9">
          <path id="Path_6" data-name="Path 6" d="M279.04,320.646a6.491,6.491,0,1,0,6.491,6.491A6.5,6.5,0,0,0,279.04,320.646Zm0,10.521a4.03,4.03,0,1,1,4.03-4.03A4.035,4.035,0,0,1,279.04,331.167Z" transform="translate(-272.549 -320.646)" fill="#fff"/>
        </g>
      </g>
      <g id="Group_12" data-name="Group 12" transform="translate(21.043 49.976)">
        <g id="Group_11" data-name="Group 11">
          <path id="Path_7" data-name="Path 7" d="M133.436,304.613a5.176,5.176,0,1,0,5.176,5.176A5.182,5.182,0,0,0,133.436,304.613Zm0,7.891a2.715,2.715,0,1,1,2.715-2.715A2.718,2.718,0,0,1,133.436,312.5Z" transform="translate(-128.26 -304.613)" fill="#fff"/>
        </g>
      </g>
      <g id="Group_14" data-name="Group 14" transform="translate(36.825 31.564)">
        <g id="Group_13" data-name="Group 13">
          <path id="Path_8" data-name="Path 8" d="M228.315,192.388a3.861,3.861,0,1,0,3.861,3.861A3.865,3.865,0,0,0,228.315,192.388Zm0,5.261a1.4,1.4,0,1,1,1.4-1.4A1.4,1.4,0,0,1,228.315,197.649Z" transform="translate(-224.454 -192.388)" fill="#fff"/>
        </g>
      </g>
      <g id="Group_16" data-name="Group 16" transform="translate(63.127 49.975)">
        <g id="Group_15" data-name="Group 15">
          <path id="Path_9" data-name="Path 9" d="M388.42,307.921l-1.315-2.63a1.23,1.23,0,0,0-2.2,1.1l1.315,2.63a1.23,1.23,0,1,0,2.2-1.1Z" transform="translate(-384.773 -304.61)" fill="#fff"/>
        </g>
      </g>
      <g id="Group_18" data-name="Group 18" transform="translate(49.976 43.4)">
        <g id="Group_17" data-name="Group 17">
          <path id="Path_10" data-name="Path 10" d="M309.574,265.211a1.23,1.23,0,0,0-1.651-.55l-2.63,1.315a1.23,1.23,0,1,0,1.1,2.2l2.63-1.315A1.23,1.23,0,0,0,309.574,265.211Z" transform="translate(-304.612 -264.531)" fill="#fff"/>
        </g>
      </g>
      <g id="Group_20" data-name="Group 20" transform="translate(13.152 39.454)">
        <g id="Group_19" data-name="Group 19">
          <path id="Path_11" data-name="Path 11" d="M83.809,243.793l-1.315-2.63a1.23,1.23,0,1,0-2.2,1.1l1.315,2.63a1.23,1.23,0,1,0,2.2-1.1Z" transform="translate(-80.162 -240.482)" fill="#fff"/>
        </g>
      </g>
      <g id="Group_22" data-name="Group 22" transform="translate(31.564 64.442)">
        <g id="Group_21" data-name="Group 21">
          <path id="Path_12" data-name="Path 12" d="M197.35,393.468a1.23,1.23,0,0,0-1.651-.55l-2.63,1.315a1.23,1.23,0,1,0,1.1,2.2l2.63-1.315A1.23,1.23,0,0,0,197.35,393.468Z" transform="translate(-192.388 -392.787)" fill="#fff"/>
        </g>
      </g>
      <g id="Group_24" data-name="Group 24" transform="translate(32.88 13.151)">
        <g id="Group_23" data-name="Group 23">
          <path id="Path_13" data-name="Path 13" d="M203.822,81.838l-1.315-1.315a1.23,1.23,0,1,0-1.74,1.74l1.315,1.315a1.23,1.23,0,1,0,1.74-1.74Z" transform="translate(-200.406 -80.162)" fill="#fff"/>
        </g>
      </g>
      <g id="Group_26" data-name="Group 26" transform="translate(30.249 43.4)">
        <g id="Group_25" data-name="Group 25">
          <path id="Path_14" data-name="Path 14" d="M187.789,266.208l-1.315-1.315a1.23,1.23,0,1,0-1.74,1.74l1.315,1.315a1.23,1.23,0,0,0,1.74-1.74Z" transform="translate(-184.373 -264.532)" fill="#fff"/>
        </g>
      </g>
      <g id="Group_28" data-name="Group 28" transform="translate(46.031 71.018)">
        <g id="Group_27" data-name="Group 27">
          <path id="Path_15" data-name="Path 15" d="M281.8,432.87a1.231,1.231,0,0,0-1.23,1.23v1.315a1.23,1.23,0,0,0,2.461,0V434.1A1.231,1.231,0,0,0,281.8,432.87Z" transform="translate(-280.566 -432.87)" fill="#fff"/>
        </g>
      </g>
      <g id="Group_30" data-name="Group 30" transform="translate(38.14 21.043)">
        <g id="Group_29" data-name="Group 29">
          <path id="Path_16" data-name="Path 16" d="M235.886,128.621a1.23,1.23,0,0,0-1.74,0l-1.315,1.315a1.23,1.23,0,1,0,1.74,1.74l1.315-1.315A1.23,1.23,0,0,0,235.886,128.621Z" transform="translate(-232.47 -128.26)" fill="#fff"/>
        </g>
      </g>
      <g id="Group_32" data-name="Group 32" transform="translate(57.275 6.111)">
        <g id="Group_31" data-name="Group 31">
          <path id="Path_17" data-name="Path 17" d="M362.38,38.686a5.119,5.119,0,0,0-5.061-1.214l-4.154,1.246a5.209,5.209,0,0,0-3.618,4.107l-.377,2.264a5.187,5.187,0,0,0,3.288,5.7l3.34,1.253a5.176,5.176,0,0,0,6.839-3.591l1.191-4.763A5.119,5.119,0,0,0,362.38,38.686Zm-.94,4.4-1.191,4.763a2.715,2.715,0,0,1-3.587,1.884l-3.34-1.253a2.72,2.72,0,0,1-1.725-2.988l.377-2.264a2.732,2.732,0,0,1,1.9-2.154l4.154-1.246a2.758,2.758,0,0,1,.793-.117,2.72,2.72,0,0,1,2.621,3.376Z" transform="translate(-349.099 -37.249)" fill="#fff"/>
        </g>
      </g>
      <g id="Group_34" data-name="Group 34" transform="translate(67.976 24.707)">
        <g id="Group_33" data-name="Group 33">
          <path id="Path_18" data-name="Path 18" d="M425.357,155.319a3.826,3.826,0,0,0-1.518-2.641l-1.745-1.309A3.839,3.839,0,0,0,418.05,151l-1.588.794a3.865,3.865,0,0,0-1.822,4.974l1.278,2.982a3.835,3.835,0,0,0,2.991,2.3,3.936,3.936,0,0,0,.568.041,3.831,3.831,0,0,0,2.955-1.39l2.056-2.467A3.826,3.826,0,0,0,425.357,155.319Zm-2.759,1.344-2.056,2.467a1.4,1.4,0,0,1-2.362-.345L416.9,155.8a1.4,1.4,0,0,1,.661-1.8l1.589-.794a1.392,1.392,0,0,1,1.466.132l1.745,1.309a1.4,1.4,0,0,1,.235,2.016Z" transform="translate(-414.328 -150.593)" fill="#fff"/>
        </g>
      </g>
      <g id="Group_36" data-name="Group 36" transform="translate(76.279 14.467)">
        <g id="Group_35" data-name="Group 35">
          <path id="Path_19" data-name="Path 19" d="M468.8,88.18a3.861,3.861,0,1,0,3.861,3.861A3.865,3.865,0,0,0,468.8,88.18Zm0,5.26a1.4,1.4,0,1,1,1.4-1.4A1.4,1.4,0,0,1,468.8,93.44Z" transform="translate(-464.936 -88.18)" fill="#fff"/>
        </g>
      </g>
      <g id="Group_38" data-name="Group 38" transform="translate(13.887 0)">
        <g id="Group_37" data-name="Group 37" transform="translate(0 0)">
          <path id="Path_20" data-name="Path 20" d="M153.519,46.653a2.621,2.621,0,0,0-2.243-.745,11.714,11.714,0,0,1-1.694.124,11.879,11.879,0,0,1-11.344-8.271,3.824,3.824,0,0,0-2.9-2.611A19.8,19.8,0,0,1,122.571,4.728,2.549,2.549,0,0,0,120.939.8,42.317,42.317,0,0,0,108.173.249,41.527,41.527,0,0,0,85.062,10.476a1.23,1.23,0,0,0,1.627,1.846A39.076,39.076,0,0,1,108.436,2.7a39.86,39.86,0,0,1,12.025.521.094.094,0,0,1,.077.056.087.087,0,0,1-.013.089,22.258,22.258,0,0,0,14.349,34.205,1.365,1.365,0,0,1,1.022.947,14.333,14.333,0,0,0,13.687,9.979,14.173,14.173,0,0,0,2.051-.15.125.125,0,0,1,.139.054,39.394,39.394,0,0,1-9.32,19.693,1.231,1.231,0,0,0,1.849,1.625,41.852,41.852,0,0,0,9.9-20.922A2.455,2.455,0,0,0,153.519,46.653Z" transform="translate(-84.645 -0.002)" fill="#fff"/>
        </g>
      </g>
      <g id="Group_40" data-name="Group 40" transform="translate(0 13.889)">
        <g id="Group_39" data-name="Group 39" transform="translate(0)">
          <path id="Path_21" data-name="Path 21" d="M69.824,142.577a1.231,1.231,0,0,0-1.737-.111A39.51,39.51,0,0,1,12.324,86.7a1.23,1.23,0,1,0-1.848-1.625,41.973,41.973,0,0,0,59.238,59.237A1.23,1.23,0,0,0,69.824,142.577Z" transform="translate(0.001 -84.658)" fill="#fff"/>
        </g>
      </g>
    </g>
  </g>
</svg>
